solid OpenSCAD_Model
  facet normal 1 -0 0
    outer loop
      vertex 3.5 1.5 10
      vertex 3.5 3.5 0
      vertex 3.5 3.5 10
    endloop
  endfacet
  facet normal 1 0 0
    outer loop
      vertex 3.5 3.5 0
      vertex 3.5 1.5 10
      vertex 3.5 1.5 0
    endloop
  endfacet
  facet normal -0 0 1
    outer loop
      vertex 0 6 10
      vertex 2 3.5 10
      vertex 2 6 10
    endloop
  endfacet
  facet normal 0 0 1
    outer loop
      vertex 0 0 10
      vertex 2 3.5 10
      vertex 0 6 10
    endloop
  endfacet
  facet normal 0 0 1
    outer loop
      vertex 2 3.5 10
      vertex 0 0 10
      vertex 2 1.5 10
    endloop
  endfacet
  facet normal 0 0 1
    outer loop
      vertex 2 1.5 10
      vertex 0 0 10
      vertex 2 0 10
    endloop
  endfacet
  facet normal -0 0 1
    outer loop
      vertex 2 3.5 10
      vertex 3.5 1.5 10
      vertex 3.5 3.5 10
    endloop
  endfacet
  facet normal 0 0 1
    outer loop
      vertex 3.5 1.5 10
      vertex 2 3.5 10
      vertex 2 1.5 10
    endloop
  endfacet
  facet normal 0 0 -1
    outer loop
      vertex 0 0 0
      vertex 2 1.5 0
      vertex 2 0 0
    endloop
  endfacet
  facet normal -0 0 -1
    outer loop
      vertex 2 1.5 0
      vertex 0 0 0
      vertex 2 3.5 0
    endloop
  endfacet
  facet normal 0 0 -1
    outer loop
      vertex 0 6 0
      vertex 2 3.5 0
      vertex 0 0 0
    endloop
  endfacet
  facet normal 0 0 -1
    outer loop
      vertex 2 3.5 0
      vertex 0 6 0
      vertex 2 6 0
    endloop
  endfacet
  facet normal 0 0 -1
    outer loop
      vertex 2 1.5 0
      vertex 3.5 3.5 0
      vertex 3.5 1.5 0
    endloop
  endfacet
  facet normal -0 0 -1
    outer loop
      vertex 3.5 3.5 0
      vertex 2 1.5 0
      vertex 2 3.5 0
    endloop
  endfacet
  facet normal -1 0 0
    outer loop
      vertex 0 0 0
      vertex 0 6 10
      vertex 0 6 0
    endloop
  endfacet
  facet normal -1 -0 0
    outer loop
      vertex 0 6 10
      vertex 0 0 0
      vertex 0 0 10
    endloop
  endfacet
  facet normal 0 1 -0
    outer loop
      vertex 3.5 3.5 0
      vertex 2 3.5 10
      vertex 3.5 3.5 10
    endloop
  endfacet
  facet normal 0 1 0
    outer loop
      vertex 2 3.5 10
      vertex 3.5 3.5 0
      vertex 2 3.5 0
    endloop
  endfacet
  facet normal 0 -1 0
    outer loop
      vertex 2 1.5 0
      vertex 3.5 1.5 10
      vertex 2 1.5 10
    endloop
  endfacet
  facet normal 0 -1 -0
    outer loop
      vertex 3.5 1.5 10
      vertex 2 1.5 0
      vertex 3.5 1.5 0
    endloop
  endfacet
  facet normal 1 -0 0
    outer loop
      vertex 2 3.5 10
      vertex 2 6 0
      vertex 2 6 10
    endloop
  endfacet
  facet normal 1 0 0
    outer loop
      vertex 2 6 0
      vertex 2 3.5 10
      vertex 2 3.5 0
    endloop
  endfacet
  facet normal 1 -0 0
    outer loop
      vertex 2 0 10
      vertex 2 1.5 0
      vertex 2 1.5 10
    endloop
  endfacet
  facet normal 1 0 0
    outer loop
      vertex 2 1.5 0
      vertex 2 0 10
      vertex 2 0 0
    endloop
  endfacet
  facet normal 0 1 -0
    outer loop
      vertex 2 6 0
      vertex 0 6 10
      vertex 2 6 10
    endloop
  endfacet
  facet normal 0 1 0
    outer loop
      vertex 0 6 10
      vertex 2 6 0
      vertex 0 6 0
    endloop
  endfacet
  facet normal 0 -1 0
    outer loop
      vertex 0 0 0
      vertex 2 0 10
      vertex 0 0 10
    endloop
  endfacet
  facet normal 0 -1 -0
    outer loop
      vertex 2 0 10
      vertex 0 0 0
      vertex 2 0 0
    endloop
  endfacet
endsolid OpenSCAD_Model
